<?xml version="1.0" encoding="UTF-8" standalone="no"?>
<svg width="65px" height="60px" viewBox="0 0 65 60" version="1.1" xmlns="http://www.w3.org/2000/svg" xmlns:xlink="http://www.w3.org/1999/xlink" xmlns:sketch="http://www.bohemiancoding.com/sketch/ns">
    <!-- Generator: Sketch 3.3.2 (12043) - http://www.bohemiancoding.com/sketch -->
    <title>Nav Icon</title>
    <desc>Created with Sketch.</desc>
    <defs></defs>
    <g id="Page-1" stroke="none" stroke-width="1" fill="none" fill-rule="evenodd" sketch:type="MSPage">
        <g id="Nav-Icon" sketch:type="MSArtboardGroup">
            <g id="Logo-Inner" sketch:type="MSLayerGroup" transform="translate(11.000000, 10.000000)">
                <g id="Silhouette-+-Eyes-+-Headband" sketch:type="MSShapeGroup">
                    <path d="M14.3691652,32.1348897 C11.4412275,33.6599463 9.25617991,36.0849742 8.37036817,38.945847 C3.32796275,34.9738431 0.0836575875,28.7682477 0.0836575875,21.794714 C0.0836575875,9.80464999 9.67454738,0.0847826087 21.5055095,0.0847826087 C33.3364716,0.0847826087 42.9273614,9.80464999 42.9273614,21.794714 C42.9273614,28.7062864 39.7404528,34.8635065 34.7746324,38.8394428 L34.7746324,38.8394428 C33.8692022,36.0284992 31.7066007,33.6471526 28.8206281,32.1407212 C32.6608453,29.6791135 35.2142784,25.3123887 35.2142784,20.3358066 C35.2142784,12.6466962 29.1187082,6.41344069 21.5994413,6.41344069 C14.0801744,6.41344069 7.98460422,12.6466962 7.98460422,20.3358066 C7.98460422,25.3084614 10.5340087,29.6722209 14.3691652,32.1348897 Z" id="Silhouette" fill="#FFFFFF"></path>
                    <g id="Headband" transform="translate(3.254092, 9.532945)" fill="#F16724">
                        <path d="M4.10433742,6.21109604 C3.70407929,5.7868863 3.2705237,6.3059964 2.85679317,6.49638138 C1.80585478,6.98058137 0.0800258503,8.00155092 0.0161819616,8.69317321 C-0.0476619271,9.38479549 1.61358802,9.67301544 2.36099393,9.52251904 C3.23842209,9.34598181 4.08867296,8.73757673 4.26233298,7.67666192 C4.34021213,7.20259677 4.42641875,6.55260319 4.10433742,6.21109604 L4.10433742,6.21109604 L4.10433742,6.21109604 Z" id="Knot-Top"></path>
                        <path d="M1.98803572,0.214649606 C2.37306553,-0.483318577 4.88547001,1.36121979 5.05889541,3.17438875 C5.15236304,4.15510754 4.78045315,4.40575467 4.01402768,4.65566667 C3.17860365,4.92820181 2.67676567,4.6590404 2.40925571,3.8845054 C2.00400074,2.71235992 1.60300591,0.912617789 1.98803572,0.214649606 L1.98803572,0.214649606 L1.98803572,0.214649606 Z" id="Knot-Bottom"></path>
                        <path d="M6.33426735,5.60809432 C6.70857353,4.50641148 8.17173116,3.13016537 6.00661232,3.3062985 C5.34276787,3.36030246 4.40292378,3.9923548 4.11422859,5.04574401 C3.77217863,6.29579093 3.73837871,7.23455596 4.41524225,7.14470345 C5.26905584,7.43470639 5.89397892,6.90286444 6.33426735,5.60809432 L6.33426735,5.60809432 Z" id="Knot"></path>
                        <path d="M31.7130705,8.15904165 C31.3173962,6.05457286 30.4582757,4.11869578 29.2485647,2.46681521 C27.0659302,2.15716508 23.325527,1.76196841 18.4513284,1.76196841 C13.5044438,1.76196841 9.57622755,2.27794075 7.29409919,2.67286316 C6.15083877,4.2950599 5.34072982,6.17911866 4.96626312,8.22023362 C8.04862173,7.74044789 13.8528669,6.92950298 18.4013542,6.83616892 C22.9207135,6.74343256 28.6401818,7.61676341 31.7130705,8.15904165 L31.7130705,8.15904165 Z" id="Head-3"></path>
                    </g>
                </g>
                <g id="Friendly-Eyes" transform="translate(14.907579, 18.581644)" fill="#FDFDFD" sketch:type="MSShapeGroup">
                    <path d="M2.22630017,0.176683907 C3.8531297,-0.202493448 5.25327722,0.257901704 5.59868813,1.76835811 C5.94409904,3.27881452 6.46695065,6.57066615 4.84012112,6.9498435 C3.21329159,7.32902086 0.494319423,6.57522959 0.148908513,5.06477318 C-0.196502396,3.55431677 0.599470638,0.555861262 2.22630017,0.176683907 Z M3.53137165,2.8432997 C2.78546881,2.85036126 2.14397326,3.58330222 2.18578396,4.3805277 C2.22496656,5.12856578 2.86837345,5.74438228 3.57270451,5.70736998 C4.30331657,5.66865317 4.86644693,5.02483394 4.83921025,4.25877671 C4.81125681,3.46690827 4.22829624,2.83648165 3.53137165,2.8432997 Z" id="Oval-9"></path>
                    <path d="M11.2083149,0.176683907 C9.58148533,-0.202493448 8.1813378,0.257901704 7.83592689,1.76835811 C7.49051598,3.27881452 6.96766438,6.57066615 8.59449391,6.9498435 C10.2213234,7.32902086 12.9402956,6.57522959 13.2857065,5.06477318 C13.6311174,3.55431677 12.8351444,0.555861262 11.2083149,0.176683907 Z M8.61231722,4.3805277 C8.65149638,5.12856578 9.29508581,5.74438228 9.99935516,5.70736998 C10.7299032,5.66865317 11.2932231,5.02483394 11.2657499,4.25877671 C11.2375601,3.46690827 10.6548895,2.83648165 9.95826482,2.8432997 C9.21242733,2.85036126 8.57074908,3.58330222 8.61231722,4.3805277 Z" id="Oval-10"></path>
                </g>
            </g>
        </g>
    </g>
</svg>
